<svg width="95" height="125" viewBox="0 0 95 125" fill="none" xmlns="http://www.w3.org/2000/svg">
<path d="M47.3821 94.7642C73.5505 94.7642 94.7642 73.5505 94.7642 47.3821C94.7642 21.2137 73.5505 0 47.3821 0C21.2137 0 0 21.2137 0 47.3821C0 73.5505 21.2137 94.7642 47.3821 94.7642Z" fill="#BE4258"/>
<path d="M47.3825 124.408L32.5665 98.747L17.7515 73.086H47.3825H77.0125L62.1975 98.747L47.3825 124.408Z" fill="#BE4258"/>
<path d="M47.7642 62.0864C57.1531 62.0864 64.7642 54.4752 64.7642 45.0864C64.7642 35.6975 57.1531 28.0864 47.7642 28.0864C38.3754 28.0864 30.7642 35.6975 30.7642 45.0864C30.7642 54.4752 38.3754 62.0864 47.7642 62.0864Z" fill="#57B2BD"/>
</svg>
